<!-- icon666.com - MILLIONS vector ICONS FREE --><svg id="Layer_2" viewBox="0 0 512 512" xmlns="http://www.w3.org/2000/svg" data-name="Layer 2"><path d="m392.23 127.68h-8.23v-7.6a44.53 44.53 0 0 0 -44.47-44.48h-219.76a44.53 44.53 0 0 0 -44.47 44.48v252.29a11.94 11.94 0 1 0 23.88 0v-252.29a20.62 20.62 0 0 1 20.59-20.59h219.76a20.61 20.61 0 0 1 20.59 20.59v7.6h-187.65a44.53 44.53 0 0 0 -44.47 44.48v219.76a44.53 44.53 0 0 0 44.48 44.48h219.75a44.53 44.53 0 0 0 44.47-44.48v-219.76a44.53 44.53 0 0 0 -44.47-44.48zm-25.54 166.32h-72.4v72.4a11.95 11.95 0 0 1 -23.89 0v-72.4h-72.4a11.94 11.94 0 1 1 0-23.88h72.4v-72.42a11.95 11.95 0 0 1 23.89 0v72.4h72.4a11.94 11.94 0 0 1 0 23.88z" fill="#000000" style="fill: rgb(255, 255, 255);"></path></svg>