<!-- icon666.com - MILLIONS OF FREE VECTOR ICONS --><svg version="1.1" id="Layer_1" xmlns="http://www.w3.org/2000/svg" xmlns:xlink="http://www.w3.org/1999/xlink" x="0px" y="0px" viewBox="0 0 512 512" style="enable-background:new 0 0 512 512;" xml:space="preserve"><g><g><path d="M440.185,51.44L388.744,0H123.256L71.815,51.44H0V512h512V51.44H440.185z M409.446,67.925L307.229,170.142l-27.618-27.618 L381.828,40.307L409.446,67.925z M130.172,40.307l102.217,102.217l-27.618,27.618L102.554,67.925L130.172,40.307z M239.304,478.609H33.391V84.832h38.847L204.77,217.364l34.534-34.533V478.609z M170.478,33.391h171.044L256,118.913 L170.478,33.391z M478.609,478.609H272.696V182.831l34.533,34.533L439.761,84.832h38.847V478.609z"></path></g></g><g><g><circle cx="322.827" cy="272.339" r="16.696"></circle></g></g><g><g><circle cx="322.827" cy="352.568" r="16.696"></circle></g></g><g><g><circle cx="322.827" cy="432.807" r="16.696"></circle></g></g></svg>