<!-- icon666.com - MILLIONS OF FREE VECTOR ICONS --><svg xmlns="http://www.w3.org/2000/svg" viewBox="0 0 64 64"><g id="Layer_2" data-name="Layer 2"><path d="M51,39.191V13a1.009,1.009,0,0,0-.293-.707l-9-9A1.009,1.009,0,0,0,41,3H17.577A4.582,4.582,0,0,0,13,7.577V30H6.65A2.653,2.653,0,0,0,4,32.65v10.7A2.652,2.652,0,0,0,6.65,46H13v2.423A4.583,4.583,0,0,0,17.577,53H38.426A11,11,0,1,0,51,39.191ZM42,6.414,47.586,12H42ZM6,43.351V32.65A.651.651,0,0,1,6.65,32h26.7a.651.651,0,0,1,.65.65v10.7a.65.65,0,0,1-.65.649H6.65A.65.65,0,0,1,6,43.351ZM17.577,51A2.58,2.58,0,0,1,15,48.423V46H33.35A2.652,2.652,0,0,0,36,43.351V32.65A2.653,2.653,0,0,0,33.35,30H15V7.577A2.58,2.58,0,0,1,17.577,5H40v8a1,1,0,0,0,1,1h8V39A11.013,11.013,0,0,0,38,50c0,.338.021.67.051,1ZM49,59a9,9,0,1,1,9-9A9.01,9.01,0,0,1,49,59Z"></path><path d="M20,16H34a1,1,0,0,0,0-2H20a1,1,0,0,0,0,2Z"></path><path d="M20,11H34a1,1,0,0,0,0-2H20a1,1,0,0,0,0,2Z"></path><path d="M20,21H44a1,1,0,0,0,0-2H20a1,1,0,0,0,0,2Z"></path><path d="M45,25a1,1,0,0,0-1-1H20a1,1,0,0,0,0,2H44A1,1,0,0,0,45,25Z"></path><path d="M11,34H9a1,1,0,0,0-1,1v6a1,1,0,0,0,1,1h2a4,4,0,0,0,0-8Zm0,6H10V36h1a2,2,0,0,1,0,4Z"></path><path d="M20,42a4,4,0,1,0-4-4A4,4,0,0,0,20,42Zm0-6a2,2,0,1,1-2,2A2,2,0,0,1,20,36Z"></path><path d="M29,42a3.992,3.992,0,0,0,2.667-1.019,1,1,0,1,0-1.334-1.49,2,2,0,1,1,0-2.982,1,1,0,1,0,1.334-1.49A4,4,0,1,0,29,42Z"></path><path d="M52.293,50.293,50,52.586V45a1,1,0,0,0-2,0v7.586l-2.293-2.293a1,1,0,0,0-1.414,1.414l4,4a1,1,0,0,0,1.414,0l4-4a1,1,0,0,0-1.414-1.414Z"></path></g></svg>