<!-- icon666.com - MILLIONS OF FREE VECTOR ICONS --><svg version="1.1" id="Layer_1" xmlns="http://www.w3.org/2000/svg" xmlns:xlink="http://www.w3.org/1999/xlink" x="0px" y="0px" viewBox="0 0 511.999 511.999" style="enable-background:new 0 0 511.999 511.999;" xml:space="preserve"><path style="fill: rgb(82, 82, 82);" d="M313.034,120.233l-34.28,33.665c76.982,10.851,134.282,75.613,134.282,154.108 c0,86.094-69.247,157.754-157.038,157.754S99.032,394.101,99.032,308.007c0-78.582,59.717-143.747,136.823-154.492l-34.406-34.716 C118.837,142.831,56.216,219.193,56.216,308.007c0,108.204,89.447,195.921,199.784,195.921s199.784-87.717,199.784-195.921 C455.783,219.244,395.573,144.309,313.034,120.233z" fill="#FCF6CD"></path><path style="fill: rgb(0, 0, 0);" d="M435.144,281.045c7.713,0,14.659,3.139,19.647,8.161c-4.244-43.632-23.074-83.036-51.668-113.564 c0.146,6.637-2.132,13.34-7.037,18.649c-5.416,5.871-12.874,8.854-20.358,8.854c-1.206,0-2.405-0.162-3.602-0.317 c22.306,24.249,36.916,55.512,40.189,90.201C417.239,285.806,425.62,281.045,435.144,281.045z" fill="#DCD08E"></path><path style="fill: rgb(255, 255, 255);" d="M78.225,334.895c8.853,0,16.64-4.178,21.661-10.556c-0.554-5.377-0.855-10.822-0.855-16.332 c0-39.594,15.334-75.4,39.647-102.85c-0.446-7.996-5.139-15.997-12.36-20.93c-6.515-4.448-14.295-5.67-21.49-4.14 c-30.247,34.322-48.614,78.99-48.614,127.92c0,5.681,0.302,11.29,0.785,16.849C62.033,330.932,69.619,334.895,78.225,334.895z" fill="#FDFBF0"></path><g><path style="fill: rgb(64, 64, 64);" d="M256,503.928c110.338,0,199.784-87.717,199.784-195.921c0-6.351-0.391-12.605-0.993-18.801 c-4.987-5.022-11.933-8.161-19.647-8.161c-9.525,0-17.905,4.761-22.829,11.983c0.465,4.931,0.722,9.924,0.722,14.98 c0,86.094-69.247,157.754-157.038,157.754c-47.963,0-90.268-21.481-118.873-54.927c-7.927-0.525-16.015,2.185-21.877,8.311 c-5.484,5.728-7.828,13.177-7.274,20.437C144.527,479.103,197.306,503.928,256,503.928z" fill="#BDB178"></path><path style="fill: rgb(64, 64, 64);" d="M396.086,194.29c4.904-5.308,7.182-12.011,7.037-18.649c-24.568-26.947-57.843-46.346-92.889-56.568 l-34.06,34.453c37.144,5.236,72.197,23.476,95.951,49.3c1.198,0.155,2.398,0.317,3.602,0.317 C383.213,203.143,390.671,200.162,396.086,194.29z" fill="#BDB178"></path></g><path style="fill: rgb(52, 236, 249);" d="M368.618,58.907V8.643h-3.092H256l-0.014-0.014l-0.014,0.014H143.381l-0.013,42.765l-0.002,5.634 v1.828c-0.001,1.519,0.6,2.976,1.667,4.056l108.925,109.714c1.219,1.221,3.198,1.22,4.415-0.003L366.997,62.882 C368.028,61.815,368.612,60.393,368.618,58.907z" fill="#6DC0A7"></path><path style="fill: rgb(41, 230, 255);" d="M361.539,8.643h-6.384l0,0H256h-0.027h-99.097l0,0h-6.384c-3.927,0-7.109,3.183-7.109,7.109v5.993 l0,0v37.277c0.021,0.775,0.199,1.527,0.514,2.222h55.764h0.031H312.31h55.789c0.329-0.73,0.517-1.522,0.52-2.338V15.152 C368.313,11.507,365.264,8.643,361.539,8.643z" fill="#AAE4D5"></path><polygon style="fill: rgb(255, 255, 255);" points="255.985,8.629 255.972,8.643 256,8.643 " fill="#FDFBF0"></polygon><path style="fill: rgb(41, 230, 255);" d="M257.094,172.988l55.215-111.744H199.66l55.577,111.746 C255.62,173.756,256.712,173.755,257.094,172.988z" fill="#AAE4D5"></path><g><path style="fill: rgb(255, 255, 255);" d="M366.477,10.643l-54.167,50.601h55.789c0.329-0.73,0.517-1.521,0.52-2.337V15.152 C368.471,13.387,367.679,11.805,366.477,10.643z" fill="#FDFBF0"></path><path style="fill: rgb(255, 255, 255);" d="M256,8.643l-56.309,52.541c0,0.02,0,0.041,0,0.061h112.618L256,8.643z" fill="#FDFBF0"></path><path style="fill: rgb(255, 255, 255);" d="M199.66,61.214l-54.121-50.557c-1.329,1.291-2.156,3.095-2.156,5.095v5.993h-0.004l-0.008,29.662 l-0.002,5.633v1.828c0,0.829,0.193,1.634,0.53,2.376h55.765h0.031c0-0.02,0-0.041,0-0.061L199.66,61.214z" fill="#FDFBF0"></path></g><path d="M450.751,237.369c-1.521-4.051-6.038-6.098-10.09-4.579c-4.051,1.522-6.101,6.039-4.579,10.091 c7.819,20.812,11.783,42.723,11.783,65.121c0,22.454-3.981,44.415-11.835,65.276c-1.525,4.049,0.521,8.569,4.572,10.094 c0.909,0.343,1.842,0.505,2.76,0.505c3.168,0,6.152-1.937,7.334-5.076c8.521-22.631,12.841-46.451,12.841-70.797 C463.537,283.715,459.236,259.951,450.751,237.369z" fill="#000000" style="fill: rgb(0, 0, 0);"></path><path d="M431.787,401.489c-3.7-2.242-8.518-1.06-10.761,2.64c-16.709,27.573-40.471,50.669-68.72,66.794 c-29.119,16.621-62.421,25.406-96.306,25.406c-39.994,0-78.318-11.957-110.828-34.576c-31.784-22.115-55.701-52.675-69.165-88.373 c-1.527-4.049-6.05-6.094-10.096-4.566c-4.049,1.527-6.094,6.048-4.566,10.096c14.588,38.678,40.481,71.773,74.877,95.706 c35.15,24.457,76.568,37.384,119.777,37.384c36.605,0,72.593-9.497,104.074-27.467c30.557-17.442,56.268-42.437,74.354-72.282 C436.67,408.55,435.488,403.732,431.787,401.489z" fill="#000000" style="fill: rgb(0, 0, 0);"></path><path d="M67.399,342.797c-2.168-11.393-3.267-23.099-3.267-34.795c0-45.879,17.009-90.077,47.893-124.449 c2.893-3.219,2.627-8.173-0.591-11.064c-3.22-2.893-8.172-2.627-11.064,0.591c-33.473,37.254-51.908,85.17-51.908,134.922 c0,12.675,1.192,25.367,3.544,37.724c0.715,3.757,4,6.373,7.688,6.373c0.486,0,0.979-0.045,1.473-0.14 C65.417,351.149,68.208,347.048,67.399,342.797z" fill="#000000" style="fill: rgb(0, 0, 0);"></path><path d="M129.176,164.351c1.73,0,3.47-0.57,4.921-1.742c18.962-15.327,40.337-26.754,63.576-34.018l20.196,20.161 c-32.874,7.852-62.726,25.776-85.237,51.444c-26.147,29.816-40.547,68.101-40.547,107.805c0,90.383,73.532,163.914,163.914,163.914 s163.914-73.532,163.914-163.914c0-39.658-14.371-77.909-40.464-107.709c-22.469-25.661-52.279-43.602-85.116-51.49l20.129-20.158 c27.978,8.788,53.873,23.999,75.082,44.178c1.517,1.443,3.459,2.158,5.4,2.158c1.968,0,3.935-0.738,5.447-2.202 c3.253-3.151,2.939-8.484-0.349-11.598c-20.925-19.825-46.033-35.205-73.208-44.926c0,0,45.713-45.867,46.057-46.211 c2.092-1.963,2.99-3.653,2.99-6.15c0-0.317-0.043-55.952-0.043-55.952C375.838,3.554,372.286,0,367.899,0 c-40.621,0.003-223.405,0.019-224.161,0.039c-1.934,0.051-3.852,0.813-5.328,2.289c-1.388,1.388-2.146,3.168-2.273,4.983 c-0.068,0.964-0.022,56.264-0.022,56.582c0,2.5,1.175,4.722,2.998,6.156c0.267,0.323,46.162,46.169,46.162,46.169 c-22.045,7.837-42.44,19.23-60.758,33.985c-3.355,2.702-4.164,7.806-1.489,11.18C124.58,163.337,126.867,164.351,129.176,164.351z M360.213,56.057h-29.59l29.59-30.308V56.057z M284.717,136.256l32.157-64.529h32.278L284.717,136.256z M299.365,71.728 l-43.211,86.711l-43.513-86.711C212.642,71.728,299.365,71.728,299.365,71.728z M218.843,56.057l37.153-37.112l37.112,37.112 H218.843z M311.957,52.745l-37.041-37.042h73.205L311.957,52.745z M199.947,52.783l-37.08-37.08h74.203L199.947,52.783z M181.06,56.057h-29.273V26.784L181.06,56.057z M195.11,71.728l32.341,64.449l-64.561-64.449H195.11z M367.66,210.616 c23.59,26.941,36.583,61.526,36.583,97.385c0,81.742-66.501,148.243-148.243,148.243s-148.243-66.502-148.243-148.243 c0-35.901,13.019-70.517,36.658-97.473c22.549-25.712,53.232-42.834,86.752-48.503l15.744,15.716 c2.476,2.472,5.766,3.833,9.264,3.833h0.001c3.507,0,6.802-1.366,9.28-3.848l15.633-15.656 C314.545,167.791,345.165,184.926,367.66,210.616z" fill="#000000" style="fill: rgb(0, 0, 0);"></path></svg>