<!-- icon666.com - MILLIONS vector ICONS FREE --><svg viewBox="0 0 64 64" xmlns="http://www.w3.org/2000/svg"><g id="gradient" fill="rgb(0,0,0)"><path d="m55 63h-46a1 1 0 0 1 -1-1v-60a1 1 0 0 1 1-1h33a1 1 0 0 1 .707.293l13 13a1 1 0 0 1 .293.707v47a1 1 0 0 1 -1 1zm-45-2h44v-45.586l-12.414-12.414h-31.586z" fill="rgb(0,0,0)" style="fill: rgb(255, 255, 255);"></path><path d="m55 16h-13a1 1 0 0 1 -1-1v-13a1 1 0 0 1 1.707-.707l13 13a1 1 0 0 1 -.707 1.707zm-12-2h9.586l-9.586-9.586z" fill="rgb(0,0,0)" style="fill: rgb(255, 255, 255);"></path><path d="m32 47.992a15.992 15.992 0 1 1 11.313-4.679 15.95 15.95 0 0 1 -11.313 4.679zm0-29.985a13.993 13.993 0 1 0 9.9 4.093 13.958 13.958 0 0 0 -9.9-4.093z" fill="rgb(0,0,0)" style="fill: rgb(255, 255, 255);"></path><path d="m33 41a1 1 0 0 1 -.707-1.707l7.293-7.293-7.293-7.293a1 1 0 0 1 1.414-1.414l8 8a1 1 0 0 1 0 1.414l-8 8a1 1 0 0 1 -.707.293z" fill="rgb(0,0,0)" style="fill: rgb(255, 255, 255);"></path><path d="m41 33h-18a1 1 0 0 1 0-2h18a1 1 0 0 1 0 2z" fill="rgb(0,0,0)" style="fill: rgb(255, 255, 255);"></path></g></svg>