<!-- icon666.com - MILLIONS vector ICONS FREE --><svg viewBox="0 0 64 64" xmlns="http://www.w3.org/2000/svg" xmlns:xlink="http://www.w3.org/1999/xlink"><linearGradient id="linear-gradient" gradientUnits="userSpaceOnUse" x1="3.25" x2="60.75" y1="32" y2="32"><stop offset="0" stop-color="#5bb4f6"></stop><stop offset=".61" stop-color="#2191e5"></stop><stop offset="1" stop-color="#007edb"></stop></linearGradient><g id="Layer_50" data-name="Layer 50"><rect fill="url(#linear-gradient)" height="57.5" rx="12.75" width="57.5" x="3.25" y="3.25"></rect><g fill="#fff"><path d="m52.6 31.55c-.38-.5-9.31-12.06-20.6-12.06s-20.22 11.56-20.6 12.06a.75.75 0 0 0 0 .9c.38.5 9.31 12.06 20.6 12.06s20.22-11.51 20.6-12.06a.75.75 0 0 0 0-.9zm-20.6 11.45c-9.32 0-17.27-8.88-19-11 1.77-2.13 9.72-11 19-11s17.27 8.88 19 11c-1.73 2.13-9.68 11-19 11z"></path><path d="m32 23.78a8.22 8.22 0 1 0 8.22 8.22 8.22 8.22 0 0 0 -8.22-8.22zm0 14.94a6.72 6.72 0 1 1 6.72-6.72 6.72 6.72 0 0 1 -6.72 6.72z"></path><path d="m32 27.6a.75.75 0 0 0 0 1.5 2.9 2.9 0 0 1 2.9 2.9.75.75 0 0 0 1.5 0 4.4 4.4 0 0 0 -4.4-4.4z"></path></g></g></svg>