<!-- icon666.com - MILLIONS OF FREE VECTOR ICONS --><svg id="Layer_1" enable-background="new 0 0 512 512" viewBox="0 0 512 512" xmlns="http://www.w3.org/2000/svg"><path d="m256.0005 114.6815c-107.8184 0-202.4238 56.3883-256.0005 141.3185 53.5767 84.9 148.1821 141.3185 256.0005 141.3185 107.8179 0 202.4233-56.4185 255.9995-141.3185-53.5762-84.9302-148.1816-141.3185-255.9995-141.3185zm132.6201 215.9426c-40.2441 22.6973-86.1035 34.6943-132.6201 34.6943-46.5176 0-92.377-11.9971-132.6211-34.6943-33.041-18.6348-61.9688-44.2031-84.6025-74.627 22.6309-30.4282 51.5586-55.999 84.6006-74.6313 40.2393-22.6909 86.0986-34.6846 132.623-34.6846 46.5234 0 92.3838 11.9937 132.6221 34.6846 33.042 18.6323 61.9697 44.2026 84.6006 74.6313-22.6338 30.4244-51.5616 55.9923-84.6026 74.627zm-132.6201-139.8598c-35.9561 0-65.208 29.2646-65.208 65.2358 0 35.9556 29.252 65.2075 65.208 65.2075 35.9551 0 65.207-29.252 65.207-65.2075 0-35.9712-29.2519-65.2358-65.207-65.2358zm0 98.4433c-18.3105 0-33.208-14.897-33.208-33.2075 0-18.3262 14.8975-33.2358 33.208-33.2358s33.207 14.9097 33.207 33.2358c0 18.3106-14.8965 33.2075-33.207 33.2075z"></path></svg>