<!-- icon666.com - MILLIONS vector ICONS FREE --><svg id="Layer_1" enable-background="new 0 0 512 512" viewBox="0 0 512 512" xmlns="http://www.w3.org/2000/svg"><path clip-rule="evenodd" d="m512 390.485c0-66.986-54.511-121.485-121.514-121.485s-121.514 54.498-121.514 121.484c0 67.003 54.511 121.514 121.514 121.514s121.514-54.51 121.514-121.513zm-117.04 0c0 2.467-2.007 4.474-4.474 4.474s-4.474-2.007-4.474-4.474c0-2.451 2.007-4.445 4.474-4.445s4.474 1.994 4.474 4.445zm41.793 26.727c-1.578 2.736-4.446 4.266-7.393 4.266-1.446 0-2.911-.368-4.254-1.144l-21.813-12.587c-3.584 2.667-8.008 4.266-12.808 4.266-11.87 0-21.528-9.657-21.528-21.528 0-8.829 5.362-16.425 13.001-19.73v-40.105c0-4.709 3.817-8.527 8.527-8.527 4.709 0 8.527 3.817 8.527 8.527v40.105c7.639 3.306 13.001 10.901 13.001 19.73 0 .851-.063 1.688-.16 2.513l21.776 12.567c4.079 2.354 5.478 7.568 3.124 11.647zm38.871-18.2c-4.014 40.387-36.225 72.598-76.613 76.613v-2.537c0-4.709-3.817-8.527-8.527-8.527-4.709 0-8.527 3.818-8.527 8.527v2.537c-40.371-4.016-72.569-36.227-76.582-76.613h2.507c4.709 0 8.527-3.818 8.527-8.527s-3.817-8.527-8.527-8.527h-2.505c4.014-40.37 36.212-72.567 76.582-76.582v2.536c0 4.709 3.817 8.527 8.527 8.527 4.709 0 8.527-3.817 8.527-8.527v-2.536c40.386 4.013 72.596 36.211 76.612 76.582h-2.536c-4.709 0-8.527 3.817-8.527 8.527 0 4.709 3.817 8.527 8.527 8.527zm17.478-8.527c0 56.583-46.034 102.618-102.618 102.618-56.566 0-102.587-46.035-102.587-102.618 0-56.566 46.021-102.587 102.587-102.587 56.585 0 102.618 46.021 102.618 102.587zm-169.154 121.514c-42.893-23.581-72.029-69.207-72.029-121.514 0-67.175 48.073-123.329 111.628-135.9v-18.934h-14.363c-4.709 0-8.526-3.817-8.526-8.527v-41.21c0-8.351 5.127-15.52 12.397-18.542v-167.373h-353.055v512.001h323.948zm96.289-329.108h-59.503c-1.64 0-3.024 1.384-3.024 3.024v32.685h65.55v-32.684c.001-1.668-1.356-3.025-3.023-3.025zm-19.865 52.76h-19.773v16.653c3.267-.231 6.562-.356 9.886-.356s6.62.125 9.886.356v-16.653zm-172.733 178.206h-29.267c-4.709 0-8.527 3.818-8.527 8.527s3.818 8.527 8.527 8.527h29.267c4.709 0 8.527-3.817 8.527-8.527s-3.817-8.527-8.527-8.527zm0-45.806h-29.267c-4.709 0-8.527 3.817-8.527 8.527 0 4.709 3.818 8.527 8.527 8.527h29.267c4.709 0 8.527-3.818 8.527-8.527 0-4.71-3.817-8.527-8.527-8.527zm-29.267-103.525h75.678c4.709 0 8.527-3.817 8.527-8.527 0-4.709-3.817-8.527-8.527-8.527h-75.678c-4.709 0-8.527 3.818-8.527 8.527.001 4.71 3.818 8.527 8.527 8.527zm0-45.806h110.871c4.709 0 8.527-3.817 8.527-8.527 0-4.709-3.817-8.526-8.527-8.526h-110.871c-4.709 0-8.527 3.817-8.527 8.527.001 4.708 3.818 8.526 8.527 8.526zm0-120.578h110.871c4.709 0 8.527-3.817 8.527-8.527 0-4.709-3.817-8.527-8.527-8.527h-110.871c-4.709 0-8.527 3.817-8.527 8.527.001 4.71 3.818 8.527 8.527 8.527zm0-45.806h110.871c4.709 0 8.527-3.817 8.527-8.527 0-4.709-3.817-8.527-8.527-8.527h-110.871c-4.709 0-8.527 3.818-8.527 8.527.001 4.709 3.818 8.527 8.527 8.527zm-44.157 340.36-41.153 37.327-13.668-13.668c-3.33-3.33-8.728-3.33-12.058 0s-3.33 8.728 0 12.058l19.41 19.41c1.661 1.661 3.843 2.497 6.03 2.497 2.047 0 4.099-.734 5.728-2.211l15.89-14.413v25.967h-82.058v-74.56h90.585c4.709 0 8.526-3.818 8.526-8.527s-3.817-8.527-8.526-8.527h-99.111c-4.709 0-8.526 3.817-8.526 8.527v91.613c0 4.709 3.817 8.527 8.526 8.527h99.111c4.709 0 8.526-3.818 8.526-8.527v-49.961l14.225-12.902c3.488-3.164 3.75-8.555.587-12.044-3.164-3.487-8.557-3.751-12.044-.586zm-110.405-82.365h99.111c4.709 0 8.526-3.818 8.526-8.527v-49.951l14.227-12.912c3.487-3.165 3.748-8.557.582-12.045-3.165-3.488-8.556-3.748-12.044-.582l-41.147 37.348-13.667-13.688c-3.328-3.333-8.726-3.337-12.058-.01s-3.336 8.726-.01 12.058l19.41 19.442c1.662 1.664 3.845 2.502 6.035 2.502 2.048 0 4.1-.734 5.73-2.213l15.888-14.422v25.947h-82.057v-74.56h90.585c4.709 0 8.526-3.817 8.526-8.527 0-4.709-3.817-8.527-8.526-8.527h-99.111c-4.709 0-8.526 3.818-8.526 8.527v91.613c0 4.711 3.817 8.527 8.526 8.527zm.001-166.384h99.111c4.709 0 8.527-3.818 8.527-8.527v-49.951l14.227-12.913c3.487-3.166 3.748-8.557.582-12.044s-8.558-3.748-12.044-.582l-41.147 37.349-13.668-13.688c-3.327-3.333-8.726-3.337-12.058-.009-3.332 3.327-3.337 8.726-.009 12.058l19.41 19.441c1.661 1.664 3.846 2.502 6.035 2.502 2.049 0 4.101-.735 5.73-2.213l15.889-14.422v25.946h-82.06v-74.558h90.586c4.709 0 8.527-3.818 8.527-8.527s-3.817-8.527-8.527-8.527h-99.111c-4.709 0-8.527 3.818-8.527 8.527v91.613c0 4.709 3.817 8.526 8.527 8.525z" fill-rule="evenodd" fill="#000000" style="fill: rgb(255, 255, 255);"></path></svg>