<!-- icon666.com - MILLIONS OF FREE VECTOR ICONS --><svg viewBox="0 0 48 48" xmlns="http://www.w3.org/2000/svg"><g id="Size_guide" data-name="Size guide"><path d="m30 8a5 5 0 0 0 5-5h-10a5 5 0 0 0 5 5z"></path><path d="m21 13c1.08 8.66-.08 14.43-1 20h20c-1-6.22-2-11.54-1-20l4 3 4-7c-8.2-6.15-7.46-6-10-6a7 7 0 0 1 -14 0c-2.53 0-1.71-.22-10 6l4 7z"></path><path d="m8 5a1 1 0 0 0 0-2h-6a1 1 0 0 0 0 2h2v26h-2a1 1 0 0 0 0 2h6a1 1 0 0 0 0-2h-2v-2h2a1 1 0 0 0 0-2h-2v-3h2a1 1 0 0 0 0-2h-2v-3h2a1 1 0 0 0 0-2h-2v-3h2a1 1 0 0 0 0-2h-2v-3h2a1 1 0 0 0 0-2h-2v-2z"></path><path d="m45 39v2h-2v-2a1 1 0 0 0 -2 0v2h-3v-2a1 1 0 0 0 -2 0v2h-3v-2a1 1 0 0 0 -2 0v2h-3v-2a1 1 0 0 0 -2 0v2h-3v-2a1 1 0 0 0 -2 0v2h-3v-2a1 1 0 0 0 -2 0v2h-2v-2a1 1 0 0 0 -2 0v6a1 1 0 0 0 2 0v-2h31v2a1 1 0 0 0 2 0v-6a1 1 0 0 0 -2 0z"></path></g></svg>