<!-- icon666.com - MILLIONS OF FREE VECTOR ICONS --><svg id="Layer_1" viewBox="0 0 512 512" xmlns="http://www.w3.org/2000/svg" xmlns:xlink="http://www.w3.org/1999/xlink" data-name="Layer 1"><linearGradient id="GradientFill_1" gradientUnits="userSpaceOnUse" x1="257.553" x2="254.423" y1="511.288" y2="-5.339"><stop offset="0" stop-color="#8786c0"></stop><stop offset="1" stop-color="#f58c80"></stop></linearGradient><path d="m497.916 371.054-72.135-63.121a41.05 41.05 0 0 0 -56.944 2.67l-31.75 33.451a16.81 16.81 0 0 1 -20.334 3.459c-76.9-39.811-112.472-75.389-152.29-152.289a16.822 16.822 0 0 1 3.491-20.331l33.446-31.749a41.1 41.1 0 0 0 2.642-56.951l-63.121-72.138a41.1 41.1 0 0 0 -60.01-2l-68.411 68.377c-10.518 10.521-14.67 23.492-11.414 35.592 30.146 112.589 73.031 194.148 134.929 256.658 31.892 32.231 68.549 59.062 111.953 82.02 42.648 22.581 91.053 40.971 148 56.221a31.541 31.541 0 0 0 8.161 1.069c9.577 0 19.249-4.34 27.411-12.519l68.408-68.38a41.089 41.089 0 0 0 -2.029-60.039z" fill="url(#GradientFill_1)" fill-rule="evenodd" style="fill: rgb(0, 0, 0);"></path></svg>